<svg xmlns="http://www.w3.org/2000/svg" id="Layer_1" enable-background="new 0 0 64 64" viewBox="0 0 64 64"><rect width="49" height="35" x="7.5" y="12.5" fill="#f4f8f8"/><path fill="#dbe7f6" d="M18.497,44.5h-6c-1.105,0-2-0.895-2-2v0c0-1.105,0.895-2,2-2h6c1.105,0,2,0.895,2,2v0    C20.497,43.605,19.602,44.5,18.497,44.5z"/><rect width="10" height="4" x="34.5" y="23.5" fill="#dbe7f6"/><rect width="8" height="4" x="21.5" y="31.5" fill="#dbe7f6"/><polygon fill="#dbe7f6" points="56.5 12.5 56.5 47.5 7.5 47.5"/><polygon fill="#b4cbea" points="29.5 31.786 24.3 35.5 29.5 35.5"/><path fill="#b4cbea" d="M12.497,44.5h6c1.105,0,2-0.895,2-2c0-1.105-0.895-2-2-2H17.3l-5.441,3.886    C12.06,44.455,12.273,44.5,12.497,44.5z"/><polygon fill="#b4cbea" points="44.5 27.5 44.5 23.5 41.1 23.5 35.5 27.5"/><rect width="8" height="4" x="35.5" y="31.5" fill="#b4cbea"/><path fill="#b4cbea" d="M51.497,44.5h-6c-1.105,0-2-0.895-2-2v0c0-1.105,0.895-2,2-2h6c1.105,0,2,0.895,2,2v0    C53.497,43.605,52.602,44.5,51.497,44.5z"/><rect width="4.254" height="4.254" x="30.353" y="40.373" fill="#b4cbea" transform="rotate(45.001 32.481 42.5)"/><path fill="#dbe7f6" d="M36.5,19.5h-9c-1.105,0-2-0.895-2-2v0c0-1.105,0.895-2,2-2h9c1.105,0,2,0.895,2,2v0    C38.5,18.605,37.605,19.5,36.5,19.5z"/><rect width="10" height="4" x="19.5" y="23.5" fill="#dbe7f6"/><rect width="4.254" height="4.254" x="13.353" y="31.373" fill="#dbe7f6" transform="rotate(45.001 15.48 33.5)"/><polygon fill="#b4cbea" points="21.5 60.5 17.5 60.5 20.5 47.5 24.5 47.5"/><polygon fill="#b4cbea" points="46.5 60.5 42.5 60.5 39.5 47.5 43.5 47.5"/><polygon fill="#79a1d5" points="40.654 52.5 23.346 52.5 22.654 55.5 41.346 55.5"/><circle cx="32" cy="5" r="1.5" fill="#b4cbea"/><path fill="#b4cbea" d="M58,12.5H6c-0.828,0-1.5-0.672-1.5-1.5v0c0-0.828,0.672-1.5,1.5-1.5h52c0.828,0,1.5,0.672,1.5,1.5v0    C59.5,11.828,58.828,12.5,58,12.5z"/><path fill="#437abe" d="M58 13H6c-1.103 0-2-.897-2-2s.897-2 2-2h52c1.103 0 2 .897 2 2S59.103 13 58 13zM6 10c-.552 0-1 .449-1 1s.448 1 1 1h52c.552 0 1-.449 1-1s-.448-1-1-1H6zM36.5 20h-9c-1.379 0-2.5-1.122-2.5-2.5s1.121-2.5 2.5-2.5h9c1.379 0 2.5 1.122 2.5 2.5S37.879 20 36.5 20zM27.5 16c-.827 0-1.5.673-1.5 1.5s.673 1.5 1.5 1.5h9c.827 0 1.5-.673 1.5-1.5S37.327 16 36.5 16H27.5zM18.497 45h-6c-1.379 0-2.5-1.122-2.5-2.5s1.121-2.5 2.5-2.5h6c1.379 0 2.5 1.122 2.5 2.5S19.876 45 18.497 45zM12.497 41c-.827 0-1.5.673-1.5 1.5s.673 1.5 1.5 1.5h6c.827 0 1.5-.673 1.5-1.5s-.673-1.5-1.5-1.5H12.497zM51.497 45h-6c-1.379 0-2.5-1.122-2.5-2.5s1.121-2.5 2.5-2.5h6c1.379 0 2.5 1.122 2.5 2.5S52.876 45 51.497 45zM45.497 41c-.827 0-1.5.673-1.5 1.5s.673 1.5 1.5 1.5h6c.827 0 1.5-.673 1.5-1.5s-.673-1.5-1.5-1.5H45.497zM29.5 28h-10c-.276 0-.5-.224-.5-.5v-4c0-.276.224-.5.5-.5h10c.276 0 .5.224.5.5v4C30 27.776 29.776 28 29.5 28zM20 27h9v-3h-9V27zM44.5 28h-10c-.276 0-.5-.224-.5-.5v-4c0-.276.224-.5.5-.5h10c.276 0 .5.224.5.5v4C45 27.776 44.776 28 44.5 28zM35 27h9v-3h-9V27zM29.5 36h-8c-.276 0-.5-.224-.5-.5v-4c0-.276.224-.5.5-.5h8c.276 0 .5.224.5.5v4C30 35.776 29.776 36 29.5 36zM22 35h7v-3h-7V35z"/><path fill="#437abe" d="M29.5 36h-8c-.276 0-.5-.224-.5-.5v-4c0-.276.224-.5.5-.5h8c.276 0 .5.224.5.5v4C30 35.776 29.776 36 29.5 36zM22 35h7v-3h-7V35zM43.5 36h-8c-.276 0-.5-.224-.5-.5v-4c0-.276.224-.5.5-.5h8c.276 0 .5.224.5.5v4C44 35.776 43.776 36 43.5 36zM36 35h7v-3h-7V35z"/><path fill="#437abe" d="M56.5,48h-49C7.224,48,7,47.776,7,47.5v-35C7,12.224,7.224,12,7.5,12h49c0.276,0,0.5,0.224,0.5,0.5v35    C57,47.776,56.776,48,56.5,48z M8,47h48V13H8V47z"/><rect width="1" height="3" x="31.5" y="6.5" fill="#437abe"/><path fill="#437abe" d="M32 7c-1.103 0-2-.897-2-2s.897-2 2-2 2 .897 2 2S33.103 7 32 7zM32 4c-.552 0-1 .449-1 1s.448 1 1 1 1-.449 1-1S32.552 4 32 4zM21.5 61h-4c-.152 0-.297-.069-.392-.188-.095-.12-.13-.275-.096-.424l3-13C20.065 47.161 20.268 47 20.5 47h4c.152 0 .297.069.392.188.095.12.13.275.096.424l-3 13C21.935 60.839 21.732 61 21.5 61zM18.129 60h2.974l2.769-12h-2.974L18.129 60zM46.5 61h-4c-.232 0-.435-.161-.487-.388l-3-13c-.034-.148.001-.304.096-.424C39.203 47.069 39.348 47 39.5 47h4c.232 0 .435.161.487.388l3 13c.034.148-.001.304-.096.424C46.797 60.931 46.652 61 46.5 61zM42.897 60h2.974l-2.769-12h-2.974L42.897 60z"/><path fill="#437abe" d="M41.974 56H22.026l.922-4h18.104L41.974 56zM23.282 55h17.436l-.461-2H23.743L23.282 55zM15.48 37.008c-.128 0-.256-.049-.354-.146l-3.008-3.008c-.195-.195-.195-.512 0-.707l3.008-3.008c.195-.195.512-.195.707 0l3.008 3.008c.195.195.195.512 0 .707l-3.008 3.008C15.736 36.959 15.608 37.008 15.48 37.008zM13.18 33.5l2.301 2.301 2.301-2.301-2.301-2.301L13.18 33.5zM32.48 46.008c-.128 0-.256-.049-.354-.146l-3.008-3.008c-.195-.195-.195-.512 0-.707l3.008-3.008c.195-.195.512-.195.707 0l3.008 3.008c.195.195.195.512 0 .707l-3.008 3.008C32.736 45.959 32.608 46.008 32.48 46.008zM30.18 42.5l2.301 2.301 2.301-2.301-2.301-2.301L30.18 42.5zM32 22c-.276 0-.5-.224-.5-.5v-2c0-.276.224-.5.5-.5s.5.224.5.5v2C32.5 21.776 32.276 22 32 22z"/><path fill="#437abe" d="M39.5 24c-.276 0-.5-.224-.5-.5V22H25v1.5c0 .276-.224.5-.5.5S24 23.776 24 23.5v-2c0-.276.224-.5.5-.5h15c.276 0 .5.224.5.5v2C40 23.776 39.776 24 39.5 24zM15.5 31c-.276 0-.5-.224-.5-.5v-5c0-.276.224-.5.5-.5h4c.276 0 .5.224.5.5S19.776 26 19.5 26H16v4.5C16 30.776 15.776 31 15.5 31zM32.48 39.992c-.234.01-.501-.225-.5-.501L31.998 34H29.5c-.276 0-.5-.224-.5-.5s.224-.5.5-.5h3c.133 0 .261.053.354.147S33 33.369 33 33.501l-.02 5.992C32.979 39.77 32.756 39.992 32.48 39.992z"/><path fill="#437abe" d="M32.52 39.992c-.275 0-.499-.223-.5-.499L32 33.501c0-.133.052-.26.146-.354S32.367 33 32.5 33h3c.276 0 .5.224.5.5S35.776 34 35.5 34h-2.498l.018 5.491c.001.276-.223.5-.498.501C32.521 39.992 32.521 39.992 32.52 39.992zM15.5 41c-.276 0-.5-.224-.5-.5v-3.992c0-.276.224-.5.5-.5s.5.224.5.5V40.5C16 40.776 15.776 41 15.5 41zM39.5 32c-.276 0-.5-.224-.5-.5v-3.992c0-.276.224-.5.5-.5s.5.224.5.5V31.5C40 31.776 39.776 32 39.5 32zM21.5 34h-3.012c-.276 0-.5-.224-.5-.5s.224-.5.5-.5H21.5c.276 0 .5.224.5.5S21.776 34 21.5 34zM29.5 43h-9.012c-.276 0-.5-.224-.5-.5s.224-.5.5-.5H29.5c.276 0 .5.224.5.5S29.776 43 29.5 43zM43.497 43h-8.009c-.276 0-.5-.224-.5-.5s.224-.5.5-.5h8.009c.276 0 .5.224.5.5S43.773 43 43.497 43z"/></svg>